<?xml version="1.0" encoding="UTF-8" standalone="no"?>
<svg
   xmlns:dc="http://purl.org/dc/elements/1.1/"
   xmlns:cc="http://creativecommons.org/ns#"
   xmlns:rdf="http://www.w3.org/1999/02/22-rdf-syntax-ns#"
   xmlns:svg="http://www.w3.org/2000/svg"
   xmlns="http://www.w3.org/2000/svg"
   xmlns:sodipodi="http://sodipodi.sourceforge.net/DTD/sodipodi-0.dtd"
   xmlns:inkscape="http://www.inkscape.org/namespaces/inkscape"
   version="1.1"
   width="1920"
   height="1080"
   id="svg1817"
   sodipodi:docname="plaque_horizontale_5_h70.116.svg"
   inkscape:version="0.92.5 (2060ec1f9f, 2020-04-08)">
  <metadata
     id="metadata1823">
    <rdf:RDF>
      <cc:Work
         rdf:about="">
        <dc:format>image/svg+xml</dc:format>
        <dc:type
           rdf:resource="http://purl.org/dc/dcmitype/StillImage" />
      </cc:Work>
    </rdf:RDF>
  </metadata>
  <defs
     id="defs1821" />
  <sodipodi:namedview
     pagecolor="#ffffff"
     bordercolor="#666666"
     borderopacity="1"
     objecttolerance="10"
     gridtolerance="10"
     guidetolerance="10"
     inkscape:pageopacity="0"
     inkscape:pageshadow="2"
     inkscape:window-width="2222"
     inkscape:window-height="1376"
     id="namedview1819"
     showgrid="false"
     inkscape:zoom="2"
     inkscape:cx="900.29916"
     inkscape:cy="553.5573"
     inkscape:window-x="72"
     inkscape:window-y="27"
     inkscape:window-maximized="0"
     inkscape:current-layer="strokes" />
  <g
     inkscape:groupmode="layer"
     id="strokes"
     inkscape:label="strokes">
    <path
       d="m 1121.986,401.641 h -10 -10 -10 -10 -3.498 -10 -10 -0.446 -10 -10 -10 -10 -10 -10 -10 -10 -10 -10 -10 -10 -10 -10 -10 -10 -10 -10 -10 -6.085 -10 -10 -0.447 -10 -10 -10 -10 -3.497"
       id="path1339"
       inkscape:connector-curvature="0"
       style="fill:none;stroke:#000000;stroke-width:0.1;stroke-linecap:butt;stroke-linejoin:round;stroke-miterlimit:4;stroke-dasharray:none;stroke-opacity:1"
       sodipodi:nodetypes="ccccccccccccccccccccccccccccccccccccc" />
    <path
       fill="none"
       stroke-width="3"
       stroke-linecap="butt"
       stroke-opacity="1"
       stroke="#000000"
       stroke-linejoin="round"
       d="m 1058.042,468.302 h 10 10 0.446 10 10 10 10 3.498"
       id="path1359"
       style="stroke-width:0.1;stroke-miterlimit:4;stroke-dasharray:none" />
    <path
       d="m 798.013,468.302 h 10 10 10 10 3.497 10 10 0.447"
       id="path1385"
       style="fill:none;stroke:#000000;stroke-width:0.1;stroke-linecap:butt;stroke-linejoin:round;stroke-miterlimit:4;stroke-dasharray:none;stroke-opacity:1"
       inkscape:connector-curvature="0"
       sodipodi:nodetypes="ccccccccc" />
    <path
       fill="none"
       stroke-width="3"
       stroke-linecap="butt"
       stroke-opacity="1"
       stroke="#000000"
       stroke-linejoin="round"
       d="m 861.957,660.074 h -10 -10 -0.442 v 10 10 7.997 h 10 10 0.442 10 10 10 10 10 10 10 10 10 10 10 10 10 10 10 10 10 10 10 6.085 10 10 0.441 v -10 -10 -7.997 h -10 -10 -0.441"
       id="path1609"
       style="stroke-width:0.1;stroke-miterlimit:4;stroke-dasharray:none" />
    <path
       fill="none"
       stroke-width="3"
       stroke-linecap="butt"
       stroke-opacity="1"
       stroke="#000000"
       stroke-linejoin="round"
       d="m 861.957,468.302 v 10 10 10 10 10 10 10 10 10 10 10 10 10 10 10 10 10 10 11.772"
       id="path1757"
       style="stroke-width:0.1;stroke-miterlimit:4;stroke-dasharray:none" />
    <path
       fill="none"
       stroke-width="3"
       stroke-linecap="butt"
       stroke-opacity="1"
       stroke="#000000"
       stroke-linejoin="round"
       d="m 1058.042,660.074 v -10 -10 -10 -10 -10 -10 -10 -10 -10 -10 -10 -10 -10 -10 -10 -10 -10 -10 -11.772"
       id="path1759"
       style="stroke-width:0.1;stroke-miterlimit:4;stroke-dasharray:none" />
    <path
       style="fill:none;fill-opacity:1;stroke:#ff0000;stroke-width:0.1;stroke-miterlimit:4;stroke-dasharray:none;stroke-opacity:1"
       id="path825"
       sodipodi:type="arc"
       sodipodi:cx="1121.9756"
       sodipodi:cy="434.96918"
       sodipodi:rx="28.811998"
       sodipodi:ry="33.328178"
       sodipodi:start="4.712389"
       sodipodi:end="1.5707963"
       sodipodi:open="true"
       d="m 1121.9756,401.641 a 28.811998,33.328178 0 0 1 28.812,33.32818 28.811998,33.328178 0 0 1 -28.812,33.32818" />
    <path
       style="fill:none;fill-opacity:1;stroke:#ff0000;stroke-width:0.1;stroke-miterlimit:4;stroke-dasharray:none;stroke-opacity:1"
       id="path825-3"
       sodipodi:type="arc"
       sodipodi:cx="-798.01337"
       sodipodi:cy="434.96918"
       sodipodi:rx="28.811998"
       sodipodi:ry="33.328178"
       sodipodi:start="4.712389"
       sodipodi:end="1.5707963"
       sodipodi:open="true"
       d="m -798.01337,401.641 a 28.811998,33.328178 0 0 1 28.812,33.32818 28.811998,33.328178 0 0 1 -28.812,33.32818"
       transform="scale(-1,1)" />
    <circle
       style="fill:none;fill-opacity:1;stroke:#ff0000;stroke-width:0.1;stroke-miterlimit:4;stroke-dasharray:none;stroke-opacity:1"
       id="path861"
       cx="851.74353"
       cy="436.25656"
       r="6.1319418" />
    <circle
       style="fill:none;fill-opacity:1;stroke:#ff0000;stroke-width:0.1;stroke-miterlimit:4;stroke-dasharray:none;stroke-opacity:1"
       id="path861-6"
       cx="1068.2513"
       cy="436.25656"
       r="6.1319418" />
  </g>
</svg>
